<?xml version="1.0" standalone="no"?>
<!DOCTYPE svg PUBLIC "-//W3C//DTD SVG 20010904//EN"
 "http://www.w3.org/TR/2001/REC-SVG-20010904/DTD/svg10.dtd">
<svg version="1.0" xmlns="http://www.w3.org/2000/svg"
 width="512.000000pt" height="512.000000pt" viewBox="0 0 512.000000 512.000000"
 preserveAspectRatio="xMidYMid meet">
<metadata>
Created by potrace 1.14, written by Peter Selinger 2001-2017
</metadata>
<g transform="translate(0.000000,512.000000) scale(0.100000,-0.100000)"
fill="#000000" stroke="none">
<path d="M2395 5096 c-163 -46 -341 -152 -510 -304 -89 -79 -128 -119 -221
-227 -240 -280 -437 -661 -498 -965 -23 -116 -29 -222 -15 -272 7 -24 13 -48
15 -55 4 -20 45 -147 54 -168 5 -11 19 -45 30 -75 75 -195 262 -478 436 -660
35 -36 49 -57 41 -61 -10 -5 -112 -27 -312 -65 -11 -2 -43 -8 -71 -14 -28 -6
-64 -13 -80 -16 -83 -14 -200 -46 -226 -62 -16 -9 -47 -46 -69 -82 l-39 -65
-57 -1 c-116 -3 -120 -4 -151 -33 -29 -27 -31 -31 -27 -92 2 -35 7 -91 11
-124 3 -33 8 -73 9 -88 2 -22 -41 -104 -174 -332 -221 -376 -223 -380 -227
-476 -4 -85 7 -130 62 -252 20 -45 49 -109 64 -142 184 -408 183 -406 218
-433 l35 -27 1872 -3 1872 -2 39 28 c46 34 49 38 203 395 135 311 144 337 143
422 -1 82 -21 135 -106 284 -40 69 -123 212 -184 318 -74 128 -110 200 -107
215 5 33 13 112 21 199 6 75 6 77 -24 110 -30 33 -32 34 -124 37 l-93 4 -35
61 c-19 34 -49 71 -67 83 -26 18 -153 48 -323 78 -123 21 -358 68 -372 74 -14
6 -5 19 50 78 37 40 74 80 82 91 8 10 31 39 50 63 157 198 291 454 360 689 12
41 25 83 28 95 10 33 5 186 -8 252 -59 300 -232 651 -466 944 -99 124 -296
315 -405 392 -109 78 -250 151 -347 180 -104 31 -256 33 -357 4z"/>
</g>
</svg>
